<svg id="Icon2" xmlns="http://www.w3.org/2000/svg" viewBox="0 0 1024 1024"><defs><style>.cls-1{fill:#72f296;}</style></defs><path class="cls-1" d="M381.1087,729.04358h-162a14.80432,14.80432,0,1,0,0,29.60864h162a14.80432,14.80432,0,0,0,0-29.60864Z"/><path class="cls-1" d="M642.89136,626.91315H804.8916a14.80408,14.80408,0,0,1,14.80408,14.80408V827.19586a14.80408,14.80408,0,0,1-14.80408,14.80408H642.89136A14.80432,14.80432,0,0,1,628.087,827.19562V641.71747A14.80432,14.80432,0,0,1,642.89136,626.91315Z"/><rect class="cls-1" x="204.30438" y="331.08698" width="191.60864" height="191.60864" rx="14.80432"/><path class="cls-1" d="M642.89111,331.087H804.8916a14.80408,14.80408,0,0,1,14.80408,14.80408v56.34821A14.80408,14.80408,0,0,1,804.8916,417.0434H642.89136A14.80432,14.80432,0,0,1,628.087,402.23907v-56.348A14.80408,14.80408,0,0,1,642.89111,331.087Z"/><path class="cls-1" d="M853.63043,0H170.36957C76.66632,0,0,76.66626,0,170.36957V853.63043C0,947.33368,76.66632,1024,170.36957,1024H853.63043C947.33368,1024,1024,947.33368,1024,853.63043V170.36957C1024,76.66626,947.33368,0,853.63043,0ZM186.82611,107.00006H837.17389a57.52167,57.52167,0,0,1,0,115.04334H186.82611a57.52167,57.52167,0,1,1,0-115.04334ZM470.913,743.8479c0,49.39252-40.4118,89.80432-89.80432,89.80432h-162c-49.39251,0-89.80432-40.4118-89.80432-89.80432v-.00024c0-49.39228,40.41181-89.80408,89.80432-89.80408h162c49.39252,0,89.80432,40.4118,89.80432,89.80408Zm0-235.9566c0,49.39251-40.4118,89.80432-89.80432,89.80432h-162c-49.39251,0-89.80432-40.41181-89.80432-89.80432v-162c0-49.39246,40.41181-89.80432,89.80432-89.80432h162c49.39252,0,89.80432,40.41186,89.80432,89.80432ZM894.69568,827.19586c0,49.39227-40.41181,89.80408-89.80432,89.80408H642.89111c-49.39227,0-89.80407-40.41181-89.80407-89.80408V641.71747c0-49.39252,40.4118-89.80432,89.80407-89.80432H804.89136c49.39251,0,89.80432,40.4118,89.80432,89.80432Zm0-424.95654c0,49.39227-40.41181,89.80408-89.80432,89.80408H642.89111c-49.39227,0-89.80407-40.41181-89.80407-89.80408V345.89111c0-49.39227,40.4118-89.80407,89.80407-89.80407H804.89136c49.39251,0,89.80432,40.4118,89.80432,89.80407Z"/></svg>